<svg version="1" xmlns="http://www.w3.org/2000/svg" width="445.333" height="445.333" viewBox="0 0 334.000000 334.000000"><path d="M174.7 27.1c-.9 1.3-2.5 7.8-3.7 14.4-1.2 6.6-2.5 12.4-3.1 13-.5.5-.9 1.9-.9 3.1 0 1.3-.4 2.6-1 2.9-.5.3-1 1.8-1 3.3 0 1.5-.7 3.6-1.5 4.6-.8 1.1-1.5 3.2-1.5 4.7 0 1.4-.7 3.2-1.5 3.9-1 .8-1.5 3.1-1.5 6.7 0 3.8-.4 5.5-1.5 5.9-1 .4-1.5 2.1-1.5 5.4 0 2.7-.4 5.1-.9 5.4-.5.4-1.2 4.9-1.6 10.1-.4 5.3-1.2 9.5-1.8 9.5-.6 0-.8 2.6-.5 7 .3 3.9.1 7.3-.3 7.6-.5.3-.6 2.2-.3 4.2s.7 10.4.9 18.7c.5 18.6 1 25.8 2.4 36 2.1 15 2.5 21.8 1.1 21.3-.7-.2-1.9-2.6-2.8-5.3-2.4-8.4-3.4-10.5-4.8-10.5-.7 0-1.6-1-1.9-2.3-2.6-8.6-4.9-13.6-6.6-14-1.2-.3-1.9-1.4-1.9-3 0-1.4-.4-2.9-1-3.2-.5-.3-1-1.5-1-2.6 0-1-.9-2.8-2-3.9s-2.6-3.9-3.2-6.1c-.7-2.3-2.1-4.4-3-4.6-1-.3-2.1-2.4-2.8-5.4-1-4.2-1.6-4.9-3.6-4.9-1.5 0-2.4-.6-2.4-1.5 0-3.4-3.3-9.5-5.1-9.5-1.2 0-2.1-.9-2.5-2.5-.3-1.4-1.4-3.1-2.4-3.8-1-.7-2.6-3-3.7-5.2-1.2-2.5-2.5-3.9-3.6-3.9-.9.1-1.7-.2-1.7-.8 0-2.3-4.2-9.8-5.5-9.8-.8 0-2.2-1.4-3-3-.9-1.7-2.7-3.5-4-4-1.4-.5-2.5-1.7-2.5-2.7-.1-2-1.9-4.8-3.6-5.4-1.5-.5-6.5-6.8-15.9-19.9-9.8-13.7-11.3-15.6-11.9-14.9-.6.6 2.7 14.8 4.5 19.7.6 1.5 1.9 7.6 2.9 13.7 1.1 6 2.4 12.8 3 15 2.1 7.6 7.2 23 8.5 26 .8 1.6 1.7 4.3 2.1 6 .4 1.6 1.7 4.3 2.9 6 1.3 1.6 2.6 4.4 3 6.2.3 1.8 2 4.9 3.6 6.9s2.9 4.3 2.9 5c0 .7 1.3 2.8 2.9 4.6 1.6 1.8 3.6 4.9 4.5 6.8 4.8 10.1 12.9 21.5 25.4 36 3 3.5 3.1 3.8 1.2 4.3-1.4.4-2.9-.7-5.6-4-2.5-3.1-4.2-4.3-5.5-4-1.1.3-3.1-.8-5.4-3-2.4-2.3-4.3-3.3-5.5-3-1.3.3-3.1-.9-6.1-4.1-3.8-4.1-4.3-4.4-5.4-2.8-1.1 1.4-1.5 1.5-2.2.4-.4-.7-2.8-3.1-5.2-5.2-4-3.5-4.5-3.7-5.6-2.2-1.1 1.5-1.4 1.5-2.5.1-2.7-3.3-7.1-5.8-8.2-4.7-.7.7-1.8.3-3.7-1.4-1.4-1.4-3.5-2.3-4.7-2.2-1.1.1-3.2-.5-4.7-1.5-1.4-.9-3.7-1.7-5.1-1.7-1.3 0-3.7-.7-5.2-1.5-1.6-.8-3.7-1.5-4.7-1.5-.9 0-2.5-.4-3.5-1-2.1-1.2-17.3-7-18.4-7-1.2 0-.9 2.9.4 4.7.7.9 3.7 4 6.7 6.7 3 2.8 9.5 9.3 14.5 14.5 17.2 17.8 26.1 26.4 31.4 30.3 2.8 2.1 5.2 4.3 5.2 4.8s1.5 1.7 3.3 2.6c1.7.9 4.4 2.8 6 4.2 2.9 2.8 9.5 6.9 16.7 10.3 2.5 1.2 5.7 3 7.1 4 1.5 1 5.3 2.5 8.5 3.3 3.3.8 8.6 2.6 11.9 4 3.3 1.4 6.6 2.6 7.3 2.6.6 0 1.2.6 1.2 1.2 0 .9-1.8 1.4-5.3 1.4-2.8.1-6.5.9-8.2 1.8-1.6.9-4.2 1.6-5.7 1.6-1.8 0-3.3.8-4.4 2.5-.9 1.4-2.4 2.5-3.3 2.5-1.9 0-6.1 3.5-6.1 5 0 .6-.5 1-1.1 1-1.3 0-3.9 2.5-3.9 3.7 0 .5-3.4 3.6-7.6 6.8-11.2 8.8-11.7 9.3-11 11 .3.8.9 1.4 1.3 1.4.4-.1 1.6.1 2.5.5 1.1.5 4.6-.1 8.6-1.3 3.7-1.1 10.2-2.5 14.3-3.2 11.1-1.6 21.7-3.7 27.9-5.5 3-.8 8.8-2.4 12.8-3.4 4-1.1 10-3.4 13.2-5.1 8.3-4.4 9.4-3.9 9.8 4.1.2 3.6-.1 9.4-.7 13-.5 3.6-1.3 9.1-1.6 12.2-.6 5.7-.6 5.8 1.9 5.8 1.9 0 2.7-.6 3-2.2.8-3.9 2.8-20.9 3.5-29.4.6-8.5 2-11.4 5.4-11.4 1.1 0 8.1 2 15.6 4.4 14.9 4.9 21.7 6.3 36 7.5 6.9.6 10.7.4 14-.5 13.2-3.8 26.3-6.4 32.4-6.4 5.4 0 7.1-.4 8.7-2 1.1-1.1 2.5-2 3-2 .6 0 1-.7 1-1.5s-2.1-2.4-4.7-3.5c-2.7-1.1-5.6-2.5-6.5-3-1-.6-2.6-1-3.6-1s-2.7-.7-3.8-1.5c-1-.8-3.3-1.5-5-1.5-1.6 0-3.9-.7-5-1.5-1-.8-3.1-1.5-4.6-1.5-1.5 0-3-.5-3.3-1-.3-.6-2-1-3.7-1-1.7 0-3.6-.7-4.2-1.5-.9-1.2-1.8-1.3-4.4-.6-2.4.7-3.9.7-5.3-.2-1.4-.9-2.6-.9-4.8 0-2.3.8-3.1.8-3.5-.2-.5-1.3-5.8-.7-8.6 1-.6.4-2.3.2-3.6-.5l-2.3-1.3 4.3-2.7c5.4-3.5 20.8-11 22.4-11 .6 0 3-1.6 5.2-3.6s5.5-4.4 7.3-5.3c1.9-1 5.3-3.3 7.7-5.2 10.4-8.3 59-58.7 59-61.1 0-.7 1-2.2 2.2-3.5 1.2-1.3 1.8-2.6 1.4-3-.7-.7-2.6-.1-19.6 6.4-4.2 1.6-8.1 2.8-8.7 2.6-.6-.2-2.9.7-5.1 2.1-2.7 1.7-4.3 2.1-5 1.4-1-1-4.6.8-8.6 4.4-1.5 1.3-2.2 1.4-3.7.5-1.6-1-2.5-.6-6.1 2.8-2.3 2.2-4.6 4.4-5 5-.4.5-1 .2-1.4-.8-1-2.7-2.7-2-6.3 2.3-2.8 3.4-3.6 3.8-4.8 2.8-1.3-1-2.2-.5-5.3 3.1-2.1 2.4-4.3 4-4.8 3.7-1.2-.7-2.8.7-6.1 5.6-1.6 2.4-3 3.4-4.2 3.1-1.2-.4-2.6.8-4.5 3.6-1.4 2.3-3.1 4.1-3.5 4.1-1.7 0-.9-3.9 1.5-6.7 1.3-1.5 3.1-4.4 4.1-6.3 1-1.9 3-5 4.4-6.9 3.7-4.9 6.7-9.8 9.7-16.1 1.4-3 4.1-8.7 6-12.7 1.9-4 3.4-7.7 3.4-8.3 0-.6.7-2.2 1.6-3.5 2.3-3.5 6.5-15.2 7.5-21 1.3-7.2 3.6-24 5.4-39 .8-7.2 2.6-17.8 3.9-23.8 1.8-8 2.1-10.7 1.1-10.7-.7 0-4 4.7-7.4 10.3-3.3 5.7-7.4 12.1-9.1 14.2-1.6 2.1-3 4.2-3 4.6 0 .5-.6.9-1.3.9-.6 0-1.8 1.3-2.5 3-.8 1.6-2 3-2.7 3-.7 0-1.6 1.2-1.9 2.7-.4 1.4-1.8 3.4-3 4.4-1.3 1-2.6 2.9-3 4.3-.3 1.3-1.4 2.6-2.5 2.9-1.2.3-2.5 2.3-3.6 5.6-.9 2.8-2.1 5-2.7 4.8-.6-.1-1.9 2-2.9 4.8-.9 2.7-2.1 4.8-2.6 4.7-.4-.2-1.4 1.4-2.1 3.7-.8 2.2-2.1 4.3-3 4.5-1.6.5-4.2 6.8-4.2 10 0 .9-.7 1.2-1.7 1-1.4-.4-2.1.5-3 3.5-.7 2.3-1.3 5-1.3 6.2 0 1.2-.8 2.3-1.9 2.6-1.4.3-2.1 1.7-2.6 4.6-1 6.4-1.5 7.7-3.1 7.7-.8 0-1.4.7-1.4 1.5 0 3.1-2.5 9.5-3.7 9.5-1.5 0-1.6-1.2-.2-16 1.5-17.2 2.1-55.1.9-56.5-.6-.7-1.1-3.5-1.1-6.1-.1-2.7-.5-5.4-.9-5.9-.4-.6-1-3.3-1.4-6-.9-8.8-2.4-16.7-5.5-30-1.7-7.2-3.6-17.5-4.2-23-.6-5.5-1.5-10.9-1.9-11.9-.7-1.9-.8-1.9-2.3.5z"/></svg>